# AST/ASF file generated using VICON BodyLanguage
# -----------------------------------------------
:version 1.10
:name VICON
:units
  mass 1.0
  length 0.45
  angle deg
:documentation
   .ast/.asf automatically generated from VICON data using
   VICON BodyBuilder and BodyLanguage model FoxedUp or BRILLIANT.MOD
:root
   order TX TY TZ RX RY RZ
   axis XYZ
   position 0 0 0  
   orientation 0 0 0 
:bonedata
  begin
     id 1 
     name lhipjoint
     direction 0.710188 -0.616876 0.339259 
     length 2.5669 
     axis 0 0 0  XYZ
  end
  begin
     id 2 
     name lfemur
     direction 0.34202 -0.939693 0  
     length 7.12796  
     axis 0 0 20  XYZ
    dof rx ry rz
    limits (-160.0 20.0)
           (-70.0 70.0)
           (-60.0 70.0)
  end
  begin
     id 3 
     name ltibia
     direction 0.34202 -0.939693 0   
     length 7.58108   
     axis 0 0 20   XYZ
    dof rx
    limits (-10.0 170.0)
  end
  begin
     id 4 
     name lfoot
     direction 0.0669471 -0.183936 0.980656   
     length 2.17365   
     axis -90 7.62852e-016 20   XYZ
    dof rx rz
    limits (-45.0 90.0)
           (-70.0 20.0)
  end
  begin
     id 5 
     name ltoes
     direction 1.53508e-011 -4.21705e-011 1   
     length 1.09427   
     axis -90 7.62852e-016 20   XYZ
    dof rx
    limits (-90.0 20.0)
  end
  begin
     id 6 
     name rhipjoint
     direction -0.700191 -0.625589 0.34405   
     length 2.53115  
     axis 0 0 0  XYZ 
  end
  begin
     id 7 
     name rfemur
     direction -0.34202 -0.939693 0   
     length 7.33006   
     axis 0 0 -20   XYZ
    dof rx ry rz
    limits (-160.0 20.0)
           (-70.0 70.0)
           (-70.0 60.0)
  end
  begin
     id 8 
     name rtibia
     direction -0.34202 -0.939693 0   
     length 7.64926   
     axis 0 0 -20   XYZ
    dof rx
    limits (-10.0 170.0)
 end
 begin
     id 9 
     name rfoot
     direction -0.0688927 -0.189281 0.979503   
     length 2.20493  
     axis -90 -7.62852e-016 -20   XYZ
    dof rx rz
    limits (-45.0 90.0)
           (-20.0 70.0)
  end
  begin
     id 10 
     name rtoes
     direction -1.53567e-011 -4.21933e-011 1   
     length 1.10919   
     axis -90 -7.62852e-016 -20   XYZ
    dof rx
    limits (-90.0 20.0)
  end
  begin
     id 11 
     name lowerback
     direction -0.0167868 0.989873 -0.140959   
     length 2.14596   
     axis 0 0 0   XYZ
    dof rx ry rz
    limits (-20.0 45.0)
           (-30.0 30.0)
           (-30.0 30.0)
  end
  begin
     id 12 
     name upperback
     direction 0.0129109 0.998033 0.0613525   
     length 2.10457   
     axis 0 0 0   XYZ
    dof rx ry rz
    limits (-20.0 45.0)
           (-30.0 30.0)
           (-30.0 30.0)
  end
  begin
     id 13 
     name thorax
     direction 0.0177047 0.991119 0.131797   
     length 2.17652   
     axis 0 0 0   XYZ
    dof rx ry rz
    limits (-20.0 45.0)
           (-30.0 30.0)
           (-30.0 30.0)
  end
  begin
     id 14 
     name lowerneck
     direction -0.0336893 0.997548 0.0613464   
     length 1.8912   
     axis 0 0 0   XYZ
    dof rx ry rz
    limits (-20.0 45.0)
           (-30.0 30.0)
           (-30.0 30.0)
  end
  begin
     id 15 
     name upperneck
     direction 0.0435909 0.997179 -0.0611028   
     length 1.8829   
     axis 0 0 0   XYZ
    dof rx ry rz
    limits (-20.0 45.0)
           (-30.0 30.0)
           (-30.0 30.0)
  end
  begin
     id 16
     name head
     direction 0.0175076 0.999444 -0.0283782  
     length 1.93197  
     axis 0 0 0   XYZ
    dof rx ry rz
    limits (-20.0 45.0)
           (-30.0 30.0)
           (-30.0 30.0)
  end
  begin
     id 17 
     name lclavicle
     direction 0.919164 0.389875 0.0559876  
     length 3.60004  
     axis 0 0 0   XYZ
    dof ry rz
    limits (-20.0 10.0)
           (0.0 20.0)
  end
  begin
     id 18 
     name lhumerus
     direction 1 -4.48958e-011 6.89191e-027   
     length 5.43301   
     axis 180 -30 -90   XYZ
    dof rx ry rz
    limits (-60.0 90.0)
           (-90.0 90.0)
           (-90.0 90.0)
  end
  begin
     id 19
     name lradius
     direction 1 -4.4897e-011 3.24727e-027   
     length 3.15936   
     axis 180 -30 -90   XYZ
    dof rx
    limits (-10.0 170.0)
  end
  begin
     id 20
     name lwrist
     direction 1 -4.4897e-011 9.00228e-027   
     length 1.57968   
     axis -6.29373e-015 90 90   XYZ
    dof ry
    limits (-180.0 0.0)
 end
  begin
     id 21 
     name lhand
     direction 1 -4.48968e-011 1.80042e-026   
     length 0.712827   
     axis -1.14882e-014 90 90   XYZ
    dof rx rz
    limits (-90.0 90.0)
           (-45.0 45.0)
  end
  begin
     id 22 
     name lfingers
     direction 1 -4.49019e-011 3.60267e-026   
     length 0.574699   
     axis -2.29769e-014 90 90   XYZ
    dof rx
    limits (0.0 90.0)
  end
  begin
     id 23
     name lthumb
     direction 0.707107 -6.3498e-011 0.707107   
     length 0.825157   
     axis -90 45 5.37419e-014   XYZ
    dof rx rz
    limits (-45.0 45.0)
           (-45.0 45.0)
  end
  begin
     id 24 
     name rclavicle
     direction -0.890334 0.455305 -0.00132111   
     length 3.51494  
     axis 0 0 0   XYZ 
    dof ry rz
    limits (-10.0 20.0)
           (-20.0 0.0)
  end
  begin
     id 25 
     name rhumerus
     direction -1 -4.48967e-011 5.07175e-028  
     length 5.34194   
     axis 180 30 90   XYZ
    dof rx ry rz
    limits (-90.0 60.0)
           (-90.0 90.0)
           (-90.0 90.0)
  end
  begin
     id 26 
     name rradius
     direction -1 -4.48955e-011 3.30467e-027   
     length 3.19351   
     axis 180 30 90   XYZ
    dof rx
    limits (-10.0 170.0)
  end
  begin
     id 27 
     name rwrist
     direction -1 -4.48968e-011 9.00208e-027   
     length 1.59676   
     axis -6.29373e-015 -90 -90   XYZ
    dof ry
    limits (-180.0 0.0)
  end
  begin
     id 28
     name rhand
     direction -1 -4.49e-011 1.80099e-026   
     length 0.743862   
     axis -1.14882e-014 -90 -90   XYZ
    dof rx rz
    limits (-90.0 90.0)
           (-45.0 45.0)
  end
  begin
     id 29
     name rfingers
     direction -1 -4.49009e-011 3.6023e-026   
     length 0.599721   
     axis -2.29769e-014 -90 -90   XYZ
    dof rx
    limits (0.0 90.0)
  end
  begin
     id 30
     name rthumb
     direction -0.707107 -6.35025e-011 0.707107   
     length 0.861083   
     axis -90 -45 -5.37419e-014   XYZ
    dof rx rz
    limits (-45.0 45.0)
           (-45.0 45.0)
  end
:hierarchy
  begin
    root lhipjoint rhipjoint lowerback
    lhipjoint lfemur
    lfemur ltibia
    ltibia lfoot
    lfoot ltoes
    rhipjoint rfemur
    rfemur rtibia
    rtibia rfoot
    rfoot rtoes
    lowerback upperback
    upperback thorax
    thorax lowerneck lclavicle rclavicle
    lowerneck upperneck
    upperneck head
    lclavicle lhumerus
    lhumerus lradius
    lradius lwrist
    lwrist lhand lthumb
    lhand lfingers
    rclavicle rhumerus
    rhumerus rradius
    rradius rwrist
    rwrist rhand rthumb
    rhand rfingers
  end

#!OML:ASF H:\Martial Arts Walks\Project 1\Capture day 1\Session 1\male.ASF
:FULLY-SPECIFIED
:DEGREES
1
root -0.313202 13.5082 -36.4636 11.783 -28.0265 -19.1869
lowerback 10.4373 0.832193 7.1786
upperback -1.37561 2.40834 5.82943
thorax -7.31845 0.987896 1.75633
lowerneck -2.7854 7.19105 1.41279
upperneck 6.01519 9.37904 2.56942
head 2.30798 4.76819 0.837571
rclavicle -6.35365e-014 2.78299e-015
rhumerus -76.1279 21.95 -96.9649
rradius 110.499
rwrist -43.9141
rhand -2.49491 -16.7522
rfingers 7.12502
rthumb 23.1986 -45.375
lclavicle -6.35365e-014 2.78299e-015
lhumerus 7.87273 -2.76749 70.9355
lradius 25.2256
lwrist -43.8839
lhand -13.9005 13.2613
lfingers 7.12502
lthumb 12.225 42.8841
rfemur 13.2906 -5.88443 12.9636
rtibia 35.4486
rfoot -24.1411 -28.9386
rtoes -26.9801
lfemur -68.9881 32.2108 0.202005
ltibia 78.6926
lfoot -7.23048 -7.36609
ltoes 2.97092
2
root -0.316929 13.5077 -36.4546 11.8806 -28.1237 -19.2366
lowerback 10.377 0.862423 7.22605
upperback -1.39111 2.44948 5.83921
thorax -7.29856 1.00638 1.73463
lowerneck -2.73835 7.18918 1.41291
upperneck 5.97727 9.38051 2.53222
head 2.28875 4.7674 0.822681
rclavicle -4.53726e-014 -2.8625e-014
rhumerus -76.146 21.835 -96.9283
rradius 110.561
rwrist -43.8711
rhand -2.33028 -17.0269
rfingers 7.12502
rthumb 23.3566 -45.6298
lclavicle -4.53726e-014 -2.8625e-014
lhumerus 7.87572 -2.74027 70.9451
lradius 25.2117
lwrist -43.9628
lhand -13.9778 13.3034
lfingers 7.12502
lthumb 12.1505 42.9305
rfemur 13.2652 -5.79487 12.9778
rtibia 35.3704
rfoot -24.2599 -28.7831
rtoes -26.884
lfemur -69.0207 32.2893 0.239206
ltibia 78.7594
lfoot -7.25962 -7.27198
ltoes 2.75004
3
root -0.324234 13.5075 -36.4438 11.9106 -28.0528 -19.2341
lowerback 10.27 0.846547 7.27937
upperback -1.38154 2.42064 5.82778
thorax -7.2248 0.991792 1.69855
lowerneck -2.73773 7.17511 1.44365
upperneck 5.94088 9.36232 2.50719
head 2.27951 4.75806 0.808363
rclavicle -3.05631e-015 -1.13705e-013
rhumerus -76.1979 21.73 -97.0468
rradius 110.421
rwrist -44.0147
rhand -2.6821 -16.2156
rfingers 7.12502
rthumb 23.019 -44.861
lclavicle -3.05631e-015 -1.13705e-013
lhumerus 7.92023 -2.76732 70.9245
lradius 25.2348
lwrist -43.9499
lhand -13.9194 13.3221
lfingers 7.12502
lthumb 12.2069 42.9459
rfemur 13.3512 -5.82405 13.0127
rtibia 35.2601
rfoot -24.2246 -28.8149
rtoes -26.9006
lfemur -69.0793 32.2162 0.241872
ltibia 78.8199
lfoot -7.316 -7.20623
ltoes 2.41165
4
root -0.329262 13.5059 -36.4372 11.9372 -28.0508 -19.2901
lowerback 10.2681 0.850554 7.32272
upperback -1.37101 2.43108 5.84574
thorax -7.21151 0.995765 1.69195
lowerneck -2.76933 7.166 1.44355
upperneck 5.95089 9.34929 2.5066
head 2.28866 4.75177 0.80963
rclavicle 4.31114e-014 -3.598e-014
rhumerus -76.1651 21.6512 -97.0327
rradius 110.428
rwrist -44.0042
rhand -2.56372 -16.353
rfingers 7.12502
rthumb 23.1326 -44.9842
lclavicle 4.31114e-014 -3.598e-014
lhumerus 7.98401 -2.70256 70.952
lradius 25.2014
lwrist -43.8588
lhand -13.8838 13.246
lfingers 7.12502
lthumb 12.2411 42.8678
rfemur 13.4293 -5.76286 13.0822
rtibia 35.1645
rfoot -24.2522 -28.7729
rtoes -26.818
lfemur -69.0894 32.2167 0.310415
ltibia 78.875
lfoot -7.34706 -7.14614
ltoes 2.22026
5
root -0.334467 13.5048 -36.4296 11.9688 -28.0405 -19.3192
lowerback 10.2327 0.850039 7.35906
upperback -1.36485 2.43043 5.85328
thorax -7.18361 0.994794 1.68031
lowerneck -2.77483 7.15688 1.44955
upperneck 5.93839 9.33732 2.49954
head 2.28625 4.74568 0.806015
rclavicle -4.41799e-014 -4.25399e-014
rhumerus -76.1597 21.5788 -97.0547
rradius 110.403
rwrist -44.0138
rhand -2.55715 -16.2558
rfingers 7.12502
rthumb 23.1389 -44.8862
lclavicle -4.41799e-014 -4.25399e-014
lhumerus 8.03468 -2.66351 70.9616
lradius 25.1748
lwrist -43.8349
lhand -13.8506 13.2089
lfingers 7.12502
lthumb 12.2731 42.8287
rfemur 13.4948 -5.73415 13.1231
rtibia 35.0642
rfoot -24.248 -28.7474
rtoes -26.7765
lfemur -69.1171 32.2002 0.345924
ltibia 78.9272
lfoot -7.37832 -7.07751
ltoes 2.01353
6
root -0.339459 13.5037 -36.4227 11.9876 -28.0286 -19.3425
lowerback 10.2099 0.846386 7.38381
upperback -1.35737 2.42564 5.86262
thorax -7.16216 0.992176 1.67751
lowerneck -2.77579 7.14972 1.45196
upperneck 5.92744 9.32792 2.49761
head 2.28307 4.74092 0.80447
rclavicle 2.23384e-014 -4.94974e-014
rhumerus -76.1493 21.5297 -97.0779
rradius 110.379
rwrist -44.0004
rhand -2.53994 -16.1803
rfingers 7.12502
rthumb 23.1554 -44.8086
lclavicle 2.23384e-014 -4.94974e-014
lhumerus 8.08574 -2.60948 70.9732
lradius 25.1327
lwrist -43.8366
lhand -13.8002 13.164
lfingers 7.12502
lthumb 12.3217 42.7809
rfemur 13.56 -5.71218 13.1568
rtibia 34.9798
rfoot -24.2338 -28.7385
rtoes -26.7546
lfemur -69.1353 32.1795 0.379377
ltibia 78.9754
lfoot -7.40698 -7.01089
ltoes 1.84656
7
root -0.343988 13.5027 -36.4163 12.0015 -28.026 -19.3628
lowerback 10.1976 0.843445 7.4007
upperback -1.35185 2.4223 5.8727
thorax -7.14912 0.990382 1.67955
lowerneck -2.76627 7.1437 1.45289
upperneck 5.91749 9.32011 2.49894
head 2.27808 4.73696 0.80376
rclavicle -1.30452e-014 3.02153e-014
rhumerus -76.1363 21.4972 -97.097
rradius 110.366
rwrist -43.9516
rhand -2.50333 -16.1629
rfingers 7.12502
rthumb 23.1906 -44.7868
lclavicle -1.30452e-014 3.02153e-014
lhumerus 8.13423 -2.5446 70.9867
lradius 25.0715
lwrist -43.8852
lhand -13.744 13.1175
lfingers 7.12502
lthumb 12.376 42.7312
rfemur 13.6211 -5.69242 13.1807
rtibia 34.9006
rfoot -24.2139 -28.7315
rtoes -26.7438
lfemur -69.1457 32.1658 0.410315
ltibia 79.0209
lfoot -7.43206 -6.94384
ltoes 1.71391
